<svg xmlns="http://www.w3.org/2000/svg" viewBox="-25.0 -35.0 50.0 60.0" width="500" height="600">
  <g fill="none" stroke="#000000" stroke-width="1" stroke-linecap="round" stroke-linejoin="round">
  <rect x="-23.0" y="-24.0" width="46.0" height="38.0"/>
  <line x1="-15.0" y1="-30.0" x2="-15.0" y2="-16.0"/>
  <line x1="-17.0" y1="-21.0" x2="-13.0" y2="-17.0"/>
  <line x1="-13.0" y1="-21.0" x2="-17.0" y2="-17.0"/>
  <line x1="-15.0" y1="-6.0" x2="-20.0" y2="-16.0"/>
  <line x1="-15.0" y1="-6.0" x2="-15.0" y2="20.0"/>
  <line x1="-5.0" y1="-30.0" x2="-5.0" y2="-16.0"/>
  <line x1="-7.0" y1="-21.0" x2="-3.0" y2="-17.0"/>
  <line x1="-3.0" y1="-21.0" x2="-7.0" y2="-17.0"/>
  <line x1="-5.0" y1="-6.0" x2="-10.0" y2="-16.0"/>
  <line x1="-5.0" y1="-6.0" x2="-5.0" y2="20.0"/>
  <line x1="5.0" y1="-30.0" x2="5.0" y2="-16.0"/>
  <line x1="3.0" y1="-21.0" x2="7.0" y2="-17.0"/>
  <line x1="7.0" y1="-21.0" x2="3.0" y2="-17.0"/>
  <line x1="5.0" y1="-6.0" x2="0.0" y2="-16.0"/>
  <line x1="5.0" y1="-6.0" x2="5.0" y2="20.0"/>
  <line x1="15.0" y1="-30.0" x2="15.0" y2="-16.0"/>
  <line x1="13.0" y1="-21.0" x2="17.0" y2="-17.0"/>
  <line x1="17.0" y1="-21.0" x2="13.0" y2="-17.0"/>
  <line x1="15.0" y1="-6.0" x2="10.0" y2="-16.0"/>
  <line x1="15.0" y1="-6.0" x2="15.0" y2="20.0"/>
  <line x1="-15.0" y1="-19.0" x2="15.0" y2="-19.0" stroke-dasharray="1.5,1.5"/>
  <circle class="punto-conexion" cx="-15.0" cy="-30.0" r="1.1" fill="#e11d48" fill-opacity="0.85" stroke="#e11d48" stroke-width="0.4"/>
  <circle class="punto-conexion" cx="-15.0" cy="20.0" r="1.1" fill="#e11d48" fill-opacity="0.85" stroke="#e11d48" stroke-width="0.4"/>
  <circle class="punto-conexion" cx="-5.0" cy="-30.0" r="1.1" fill="#e11d48" fill-opacity="0.85" stroke="#e11d48" stroke-width="0.4"/>
  <circle class="punto-conexion" cx="-5.0" cy="20.0" r="1.1" fill="#e11d48" fill-opacity="0.85" stroke="#e11d48" stroke-width="0.4"/>
  <circle class="punto-conexion" cx="5.0" cy="-30.0" r="1.1" fill="#e11d48" fill-opacity="0.85" stroke="#e11d48" stroke-width="0.4"/>
  <circle class="punto-conexion" cx="5.0" cy="20.0" r="1.1" fill="#e11d48" fill-opacity="0.85" stroke="#e11d48" stroke-width="0.4"/>
  <circle class="punto-conexion" cx="15.0" cy="-30.0" r="1.1" fill="#e11d48" fill-opacity="0.85" stroke="#e11d48" stroke-width="0.4"/>
  <circle class="punto-conexion" cx="15.0" cy="20.0" r="1.1" fill="#e11d48" fill-opacity="0.85" stroke="#e11d48" stroke-width="0.4"/>
  </g>
</svg>
