<svg xmlns="http://www.w3.org/2000/svg" viewBox="-20.0 -35.0 40.0 60.0" width="400" height="600">
  <g fill="none" stroke="#000000" stroke-width="1" stroke-linecap="round" stroke-linejoin="round">
  <line x1="-10.0" y1="-30.0" x2="-10.0" y2="-16.0"/>
  <line x1="-12.0" y1="-21.0" x2="-8.0" y2="-17.0"/>
  <line x1="-8.0" y1="-21.0" x2="-12.0" y2="-17.0"/>
  <line x1="-10.0" y1="-6.0" x2="-15.0" y2="-16.0"/>
  <line x1="-10.0" y1="-6.0" x2="-10.0" y2="20.0"/>
  <line x1="0.0" y1="-30.0" x2="0.0" y2="-16.0"/>
  <line x1="-2.0" y1="-21.0" x2="2.0" y2="-17.0"/>
  <line x1="2.0" y1="-21.0" x2="-2.0" y2="-17.0"/>
  <line x1="0.0" y1="-6.0" x2="-5.0" y2="-16.0"/>
  <line x1="0.0" y1="-6.0" x2="0.0" y2="20.0"/>
  <line x1="10.0" y1="-30.0" x2="10.0" y2="-16.0"/>
  <line x1="8.0" y1="-21.0" x2="12.0" y2="-17.0"/>
  <line x1="12.0" y1="-21.0" x2="8.0" y2="-17.0"/>
  <line x1="10.0" y1="-6.0" x2="5.0" y2="-16.0"/>
  <line x1="10.0" y1="-6.0" x2="10.0" y2="20.0"/>
  <line x1="-10.0" y1="-19.0" x2="10.0" y2="-19.0" stroke-dasharray="1.5,1.5"/>
  <circle class="punto-conexion" cx="-10.0" cy="-30.0" r="1.1" fill="#e11d48" fill-opacity="0.85" stroke="#e11d48" stroke-width="0.4"/>
  <circle class="punto-conexion" cx="-10.0" cy="20.0" r="1.1" fill="#e11d48" fill-opacity="0.85" stroke="#e11d48" stroke-width="0.4"/>
  <circle class="punto-conexion" cx="0.0" cy="-30.0" r="1.1" fill="#e11d48" fill-opacity="0.85" stroke="#e11d48" stroke-width="0.4"/>
  <circle class="punto-conexion" cx="0.0" cy="20.0" r="1.1" fill="#e11d48" fill-opacity="0.85" stroke="#e11d48" stroke-width="0.4"/>
  <circle class="punto-conexion" cx="10.0" cy="-30.0" r="1.1" fill="#e11d48" fill-opacity="0.85" stroke="#e11d48" stroke-width="0.4"/>
  <circle class="punto-conexion" cx="10.0" cy="20.0" r="1.1" fill="#e11d48" fill-opacity="0.85" stroke="#e11d48" stroke-width="0.4"/>
  </g>
</svg>
